# xmcd
#
# Track frame offsets:
#	183
#	16833
#	31533
#
# Disc length: 631 seconds
#
# Revision: 3
# Processed by: cddbd v1.5.2PL0 Copyright (c) Steve Scherf et al.
# Submitted via: EasyCDDAExtractor 11.1.0.1
#
DISCID=10027503
DTITLE=Memphis Blue - promo
DYEAR=1995
DGENRE=country
TTITLE0=Every little thing
TTITLE1=Nothing but love
TTITLE2=Cody
EXTD=YEAR: 1995
EXTT0=
EXTT1=
EXTT2=
PLAYORDER=
